ply
format ascii 1.0
comment Created by Blender 3.0.1 - www.blender.org
element vertex 24
property float x
property float y
property float z
property float nx
property float ny
property float nz
property float s
property float t
element face 12
property list uchar uint vertex_indices
end_header
0.000000 0.000000 1.000000 0.000000 0.000000 1.000000 0.000000 0.000000
1.000000 0.000000 1.000000 0.000000 0.000000 1.000000 0.000000 0.333333
0.000000 1.000000 1.000000 0.000000 0.000000 1.000000 0.500000 0.000000
1.000000 1.000000 1.000000 0.000000 0.000000 1.000000 0.500000 0.333333
0.000000 0.000000 0.000000 0.000000 0.000000 -1.000000 0.500000 0.000000
1.000000 0.000000 0.000000 0.000000 0.000000 -1.000000 0.500000 0.333333
0.000000 1.000000 0.000000 0.000000 0.000000 -1.000000 1.000000 0.000000
1.000000 1.000000 0.000000 0.000000 0.000000 -1.000000 1.000000 0.333333
0.000000 1.000000 0.000000 0.000000 1.000000 0.000000 0.000000 0.333334
1.000000 1.000000 0.000000 0.000000 1.000000 0.000000 0.000000 0.666666
0.000000 1.000000 1.000000 0.000000 1.000000 0.000000 0.500000 0.333334
1.000000 1.000000 1.000000 0.000000 1.000000 0.000000 0.500000 0.666666
0.000000 0.000000 0.000000 0.000000 -1.000000 0.000000 0.500000 0.333334
1.000000 0.000000 0.000000 0.000000 -1.000000 0.000000 0.500000 0.666666
0.000000 0.000000 1.000000 0.000000 -1.000000 0.000000 1.000000 0.333334
1.000000 0.000000 1.000000 0.000000 -1.000000 0.000000 1.000000 0.666666
1.000000 0.000000 0.000000 1.000000 0.000000 0.000000 0.000000 0.666667
1.000000 1.000000 0.000000 1.000000 0.000000 0.000000 0.000000 1.000000
1.000000 0.000000 1.000000 1.000000 0.000000 0.000000 0.500000 0.666667
1.000000 1.000000 1.000000 1.000000 0.000000 0.000000 0.500000 1.000000
0.000000 0.000000 0.000000 -1.000000 0.000000 0.000000 0.500000 0.666667
0.000000 1.000000 1.000000 -1.000000 0.000000 0.000000 1.000000 1.000000
0.000000 0.000000 1.000000 -1.000000 0.000000 0.000000 1.000000 0.666667
0.000000 1.000000 0.000000 -1.000000 0.000000 0.000000 0.500000 1.000000
3 0 1 3
3 2 0 3
3 4 7 5
3 6 7 4
3 8 11 9
3 10 11 8
3 12 13 15
3 14 12 15
3 16 17 19
3 18 16 19
3 20 23 21
3 22 23 20
